<svg width="14" height="8" viewBox="0 0 14 8" fill="none" xmlns="http://www.w3.org/2000/svg">
<path d="M13.616 0.740319C13.2316 0.459069 12.6973 0.515319 12.3785 0.862194L9.81604 4.01219C9.63792 4.19969 9.30042 4.31219 9.1223 4.31219H6.93789C6.67536 4.31219 6.46915 4.10597 6.46915 3.84344C6.46915 3.58091 6.67536 3.37469 6.93789 3.37469C7.56571 3.37469 8.26077 3.37469 8.81289 3.37469C9.32851 3.37469 9.75039 2.95282 9.75039 2.43719C9.75039 1.92157 9.32851 1.49969 8.81289 1.49969C6.61146 1.49969 8.71133 1.49969 6.35665 1.49969C6.12302 1.49969 6.00652 1.35154 5.82227 1.19029C5.09699 0.537632 4.01137 0.223195 2.91231 0.477944C2.30206 0.619382 1.89053 0.865912 1.47315 1.19647L1.45925 1.18519L0.78125 1.78188L3.44574 7.12468H4.23474H8.81289C9.69414 7.12468 10.5379 6.70281 11.0629 5.99968L13.8129 2.06219C14.1223 1.64966 14.0379 1.04972 13.616 0.740319Z" fill="#C8C8C8"/>
</svg>
