<svg width="17" height="17" viewBox="0 0 17 17" fill="none" xmlns="http://www.w3.org/2000/svg">
<path d="M16.7146 7.7387L14.1382 5.16226V2.18605C14.1382 1.64791 13.7021 1.21179 13.1632 1.21179C12.6255 1.21179 12.1894 1.64791 12.1894 2.18605V3.2135L10.2711 1.29507C9.3226 0.347131 7.67355 0.348813 6.72726 1.29679L0.285216 7.7387C-0.095072 8.11974 -0.095072 8.73629 0.285216 9.11675C0.665676 9.49769 1.28343 9.49769 1.66375 9.11675L8.10518 2.67467C8.31502 2.46593 8.68488 2.46593 8.89362 2.67406L15.3361 9.11675C15.5272 9.30724 15.7762 9.40199 16.0252 9.40199C16.2748 9.40199 16.5242 9.30714 16.7147 9.11675C17.0951 8.73633 17.0951 8.11978 16.7146 7.7387Z" fill="#C8C8C8"/>
<path d="M8.8389 4.52408C8.65174 4.33703 8.3487 4.33703 8.16209 4.52408L2.49565 10.1888C2.40619 10.2783 2.35547 10.4004 2.35547 10.5278V14.6594C2.35547 15.629 3.14158 16.415 4.11107 16.415H6.91652V12.0703H10.0838V16.415H12.8893C13.8588 16.415 14.6449 15.629 14.6449 14.6595V10.5278C14.6449 10.4004 14.5946 10.2783 14.5047 10.1888L8.8389 4.52408Z" fill="#C8C8C8"/>
</svg>
