<svg width="17" height="18" viewBox="0 0 17 18" fill="none" xmlns="http://www.w3.org/2000/svg">
<path d="M16.3712 16.2683H16.0059V7.27203H16.0056C15.5568 7.27203 15.1318 7.12555 14.7783 6.87891C14.5402 7.04633 14.2661 7.17008 13.9629 7.23051C13.8238 7.25821 13.6824 7.27203 13.5424 7.27203C13.4496 7.27203 13.3588 7.26171 13.2687 7.24993V13.9419C13.2687 14.3238 12.9589 14.6335 12.5768 14.6335H10.0913V12.7381L10.9676 14.2006C11.071 14.3736 11.2543 14.4694 11.4423 14.4694C11.5387 14.4694 11.6368 14.444 11.7258 14.3907C11.9875 14.2336 12.0726 13.8944 11.9155 13.6325L10.154 10.6923C10.045 10.5098 9.84697 10.4197 9.64868 10.4309C9.63542 10.4297 7.60774 10.4294 7.59538 10.4303C7.39441 10.4165 7.19345 10.5075 7.08266 10.6923L5.32112 13.6325C5.16406 13.8944 5.24918 14.2336 5.51087 14.3907C5.59989 14.444 5.69802 14.4694 5.79439 14.4694C5.9824 14.4694 6.16568 14.3736 6.26912 14.2006L7.15104 12.7287V14.6335H4.66022C4.27802 14.6335 3.96834 14.3238 3.96834 13.9419V7.24993C3.87821 7.26171 3.7874 7.27203 3.69459 7.27203C3.5555 7.27203 3.41403 7.25821 3.27264 7.23021C2.96969 7.16982 2.69623 7.04633 2.45843 6.87891C2.10486 7.12555 1.68024 7.27203 1.23141 7.27203H1.23111V16.2683H0.865765C0.387516 16.2683 0 16.6558 0 17.1341C0 17.6123 0.387516 17.9998 0.865765 17.9998H16.3713C16.8496 17.9998 17.2371 17.6123 17.2371 17.1341C17.237 16.6558 16.8495 16.2683 16.3712 16.2683Z" fill="#C8C8C8"/>
<path d="M8.61839 7.3252C7.98274 7.3252 7.4668 7.91486 7.4668 8.64269C7.4668 9.36992 7.98274 9.96015 8.61839 9.96015C9.25459 9.96015 9.77028 9.36992 9.77028 8.64269C9.77024 7.91486 9.25459 7.3252 8.61839 7.3252Z" fill="#C8C8C8"/>
<path d="M0.879218 6.29715C0.99684 6.33192 1.11528 6.34867 1.23227 6.34867C1.76207 6.34867 2.25187 6.00364 2.41123 5.46972L2.47604 5.25312C2.53409 5.77207 2.91422 6.21756 3.45349 6.32486C3.53449 6.34105 3.61553 6.3487 3.69512 6.3487C4.2706 6.3487 4.7848 5.94329 4.90149 5.35774L4.93154 5.20718C4.97399 5.79324 5.42954 6.28245 6.03418 6.34254C6.07577 6.34662 6.117 6.34841 6.15796 6.34841C6.78269 6.34841 7.3181 5.87462 7.38146 5.2393L7.3906 5.14794C7.40738 5.81359 7.94933 6.34841 8.61881 6.34841C9.28825 6.34841 9.83019 5.81359 9.84698 5.14794L9.85608 5.2393C9.91948 5.87462 10.4549 6.34841 11.0796 6.34841C11.1206 6.34841 11.1618 6.34666 11.2034 6.34254C11.808 6.28245 12.2639 5.79324 12.306 5.20718L12.336 5.35774C12.4528 5.94355 12.9669 6.3487 13.5424 6.3487C13.622 6.3487 13.7031 6.34105 13.7841 6.32486C14.3233 6.21756 14.7038 5.77207 14.7615 5.25312L14.8263 5.46972C14.9857 6.00368 15.4755 6.34867 16.0053 6.34867C16.1222 6.34867 16.2407 6.33188 16.3583 6.29715C17.0101 6.10232 17.3802 5.41635 17.1858 4.76514L16.0745 1.04578C15.8892 0.425213 15.3184 0 14.6707 0H2.56681C1.91913 0 1.34837 0.425213 1.16304 1.04578L0.0517819 4.76514C-0.142682 5.41635 0.227453 6.10232 0.879218 6.29715Z" fill="#C8C8C8"/>
</svg>
