<svg width="18" height="18" viewBox="0 0 18 18" fill="none" xmlns="http://www.w3.org/2000/svg">
<g clip-path="url(#clip0_203_532)">
<path d="M8.87161 8.67065C10.0628 8.67065 11.0943 8.24342 11.9371 7.4005C12.7799 6.55771 13.2071 5.52651 13.2071 4.33519C13.2071 3.14428 12.7799 2.11294 11.9369 1.26988C11.094 0.427229 10.0627 0 8.87161 0C7.68028 0 6.64908 0.427229 5.80629 1.27001C4.9635 2.1128 4.53613 3.14414 4.53613 4.33519C4.53613 5.52651 4.9635 6.55785 5.80643 7.40064C6.64935 8.24329 7.68069 8.67065 8.87161 8.67065Z" fill="#C8C8C8"/>
<path d="M16.4577 13.8407C16.4333 13.49 16.3842 13.1074 16.3118 12.7034C16.2388 12.2963 16.1447 11.9115 16.0321 11.5598C15.9158 11.1963 15.7576 10.8373 15.562 10.4933C15.359 10.1363 15.1206 9.82537 14.8531 9.56953C14.5734 9.30188 14.2309 9.08668 13.8348 8.92972C13.4401 8.77357 13.0027 8.69447 12.5349 8.69447C12.3511 8.69447 12.1734 8.76987 11.8302 8.9933C11.619 9.13104 11.3719 9.29034 11.0962 9.46653C10.8604 9.61677 10.541 9.75753 10.1464 9.88497C9.76149 10.0095 9.37065 10.0727 8.98489 10.0727C8.59914 10.0727 8.20844 10.0095 7.82309 9.88497C7.42896 9.75767 7.10953 9.61691 6.87401 9.46667C6.60086 9.29213 6.35367 9.13283 6.1393 8.99316C5.79652 8.76973 5.61868 8.69434 5.43494 8.69434C4.96692 8.69434 4.52966 8.77357 4.13512 8.92985C3.73933 9.08655 3.3967 9.30174 3.11668 9.56967C2.8493 9.82565 2.61076 10.1364 2.40807 10.4933C2.21265 10.8373 2.05444 11.1962 1.93799 11.56C1.82552 11.9117 1.73145 12.2963 1.65839 12.7034C1.58601 13.1068 1.53685 13.4896 1.51254 13.8411C1.48865 14.1856 1.47656 14.543 1.47656 14.9041C1.47656 15.8437 1.77525 16.6043 2.36426 17.1653C2.94598 17.7189 3.71571 17.9997 4.65175 17.9997H13.3189C14.2549 17.9997 15.0244 17.719 15.6062 17.1653C16.1954 16.6047 16.494 15.8439 16.494 14.9039C16.4939 14.5412 16.4817 14.1835 16.4577 13.8407Z" fill="#C8C8C8"/>
</g>
<defs>
<clipPath id="clip0_203_532">
<rect width="18" height="18" fill="white"/>
</clipPath>
</defs>
</svg>
