<svg width="15" height="12" viewBox="0 0 15 12" fill="none" xmlns="http://www.w3.org/2000/svg">
<path d="M14.5605 11.0625H14.0918V1.15625C14.0918 0.897217 13.8952 0.6875 13.6523 0.6875H11.8945C11.6517 0.6875 11.4551 0.897217 11.4551 1.15625V11.0625H10.5762V3.96875C10.5762 3.70972 10.3796 3.5 10.1367 3.5H8.37891C8.13606 3.5 7.93945 3.70972 7.93945 3.96875V11.0625H7.06055V7.71875C7.06055 7.45972 6.86394 7.25 6.62109 7.25H4.86328C4.62044 7.25 4.42383 7.45972 4.42383 7.71875V11.0625H3.54492V5.84375C3.54492 5.58472 3.34831 5.375 3.10547 5.375H1.34766C1.10481 5.375 0.908203 5.58472 0.908203 5.84375V11.0625H0.439453C0.19661 11.0625 0 11.2722 0 11.5312C0 11.7903 0.19661 12 0.439453 12H14.5605C14.8034 12 15 11.7903 15 11.5312C15 11.2722 14.8034 11.0625 14.5605 11.0625Z" fill="#C8C8C8"/>
</svg>
