<svg width="16" height="16" viewBox="0 0 16 16" fill="none" xmlns="http://www.w3.org/2000/svg">
<path d="M14.125 0.625H1.875C0.841064 0.625 0 1.46606 0 2.5V13.5C0 14.5339 0.841064 15.375 1.875 15.375H14.125C15.1589 15.375 16 14.5339 16 13.5V2.5C16 1.46606 15.1589 0.625 14.125 0.625ZM1.875 1.875H14.125C14.4696 1.875 14.75 2.1554 14.75 2.5V4.375H1.25V2.5C1.25 2.1554 1.5304 1.875 1.875 1.875ZM14.125 14.125H1.875C1.5304 14.125 1.25 13.8446 1.25 13.5V5.625H14.75V13.5C14.75 13.8446 14.4696 14.125 14.125 14.125ZM2.1875 3.125C2.1875 2.77979 2.46729 2.5 2.8125 2.5C3.15771 2.5 3.4375 2.77979 3.4375 3.125C3.4375 3.47021 3.15771 3.75 2.8125 3.75C2.46729 3.75 2.1875 3.47021 2.1875 3.125ZM4.375 3.125C4.375 2.77979 4.65479 2.5 5 2.5C5.34521 2.5 5.625 2.77979 5.625 3.125C5.625 3.47021 5.34521 3.75 5 3.75C4.65479 3.75 4.375 3.47021 4.375 3.125ZM10.8325 6.43311L13.0245 8.625L10.8325 10.8169L9.94873 9.93311L10.6317 9.25H7.34375V8H10.6317L9.94873 7.31689L10.8325 6.43311ZM5.36829 10.5H8.59375V11.75H5.36829L6.05127 12.4331L5.16748 13.3169L2.97546 11.125L5.16748 8.93311L6.05127 9.81689L5.36829 10.5Z" fill="#C8C8C8"/>
</svg>
