<svg width="19" height="18" viewBox="0 0 19 18" fill="none" xmlns="http://www.w3.org/2000/svg">
<g clip-path="url(#clip0_203_661)">
<path d="M6.9612 7.87866C5.11501 6.07794 5.08661 3.20277 6.68529 1.43396C8.239 -0.285044 10.8126 -0.483781 12.6209 0.974593C14.4567 2.45521 14.8202 5.03154 13.7842 6.81873C13.3952 6.58856 13.0057 6.35791 12.6029 6.11952C13.0369 5.1858 13.0596 4.2511 12.6398 3.32076C12.3105 2.5906 11.7785 2.05967 11.0554 1.73908C9.67393 1.12739 8.12163 1.67574 7.37672 3.00404C6.63701 4.32315 6.93233 6.55326 8.88689 7.48167C8.84572 7.55372 8.80691 7.62577 8.76479 7.69588C7.8708 9.18134 6.9806 10.6687 6.0762 12.1479C5.95978 12.3379 5.96782 12.4719 6.05774 12.6658C6.59631 13.8287 5.90299 15.142 4.65452 15.3069C3.9134 15.4046 3.31472 15.1028 2.90488 14.4728C2.47847 13.8166 2.45765 13.115 2.86087 12.4414C3.24373 11.8022 3.82253 11.5024 4.56603 11.5778C4.68008 11.5894 4.75628 11.5817 4.82632 11.4642C5.51965 10.2964 6.22007 9.13346 6.91813 7.96909C6.93375 7.94443 6.94369 7.9159 6.9612 7.87866Z" fill="#C8C8C8"/>
<path d="M4.28587 8.91797C4.28587 9.38459 4.28587 9.83767 4.28587 10.3125C3.29344 10.4344 2.49647 10.9203 1.94985 11.8043C1.54711 12.4556 1.40276 13.1727 1.5012 13.9323C1.68672 15.3665 2.82586 16.4366 4.23949 16.4855C5.22766 16.5193 6.05113 16.1271 6.69429 15.3602C7.33272 14.5991 7.5083 13.6954 7.39046 12.7041C7.53244 12.7041 7.62188 12.7046 7.7118 12.7041C9.32136 12.6925 10.9314 12.677 12.541 12.6727C12.7345 12.6722 12.8486 12.6181 12.9584 12.4449C13.3942 11.7583 14.2021 11.4561 14.9565 11.6718C15.6967 11.8831 16.2442 12.5741 16.2797 13.3414C16.319 14.1978 15.8424 14.9516 15.0748 15.2466C14.3436 15.5275 13.5111 15.3022 13.0256 14.6876C12.9551 14.5982 12.8722 14.5034 12.8434 14.3975C12.7714 14.133 12.6025 14.1088 12.3692 14.1122C11.266 14.1291 10.1623 14.1282 9.0587 14.1335C8.97588 14.134 8.89353 14.1335 8.79226 14.1335C8.48795 15.6866 7.68767 16.8621 6.2783 17.5512C5.27924 18.04 4.23239 18.1295 3.16566 17.8176C1.05113 17.1996 -0.284411 15.0537 0.051604 12.8337C0.426427 10.357 2.44157 8.95665 4.28587 8.91797Z" fill="#C8C8C8"/>
<path d="M13.1472 9.16844C15.7904 8.38462 18.1595 9.94647 18.8164 12.1882C19.4828 14.4638 18.283 16.8709 16.0672 17.6808C13.832 18.498 11.5689 17.3834 10.6924 15.7234C11.0762 15.4952 11.4605 15.2669 11.8628 15.0281C12.496 15.9453 13.355 16.4536 14.4581 16.4777C15.2012 16.4942 15.8723 16.2596 16.452 15.779C17.5769 14.8462 17.867 13.2399 17.1307 11.9803C16.6546 11.166 15.9447 10.6781 15.036 10.4982C14.1321 10.3188 13.3166 10.5727 12.5547 11.093C12.4988 10.9933 12.4572 10.9227 12.4184 10.8502C11.6602 9.41892 10.9011 7.98811 10.1472 6.55488C10.0757 6.419 9.99813 6.35856 9.83628 6.35469C8.80788 6.32858 7.98772 5.44272 8.03836 4.42776C8.09042 3.38668 8.95175 2.59705 9.97968 2.64782C11.0005 2.69811 11.806 3.60815 11.7397 4.64487C11.7175 4.99109 11.5911 5.30104 11.4014 5.58972C11.3592 5.65403 11.346 5.78217 11.3801 5.84745C11.9475 6.93688 12.5249 8.02051 13.1004 9.10558C13.1112 9.12492 13.1273 9.14137 13.1472 9.16844Z" fill="#C8C8C8"/>
</g>
<defs>
<clipPath id="clip0_203_661">
<rect width="19" height="18" fill="white"/>
</clipPath>
</defs>
</svg>
