<svg width="16" height="17" viewBox="0 0 16 17" fill="none" xmlns="http://www.w3.org/2000/svg">
<path d="M14.24 7.055C14.08 6.29 13.76 5.525 13.36 4.845L14.16 3.06L13.04 1.87L11.36 2.72C10.72 2.295 10.08 2.04 9.36 1.87L8.8 0H7.2L6.56 1.87C5.84 2.04 5.2 2.38 4.56 2.805L2.88 1.955L1.76 3.06L2.56 4.845C2.16 5.525 1.92 6.205 1.76 6.97L0 7.65V9.35L1.76 10.03C1.92 10.795 2.24 11.56 2.56 12.155L1.76 13.94L2.88 15.13L4.56 14.28C5.2 14.705 5.84 15.045 6.56 15.215L7.2 17H8.8L9.44 15.13C9.68 15.045 10 14.96 10.24 14.875L8.96 13.515C5.92 14.11 3.2 11.73 3.2 8.5C3.2 5.695 5.36 3.4 8 3.4C10.96 3.4 13.2 6.205 12.72 9.18L14.08 10.625C14.16 10.37 14.24 10.2 14.24 9.945L16 9.35V7.65L14.24 7.055Z" fill="#005A7F"/>
<path d="M15.68 14.7897L10.96 9.77466C12.08 7.13966 9.75996 4.33466 7.19996 5.09966L8.63996 6.62966C9.27996 7.30966 9.27996 8.41466 8.63996 9.00966C8.07996 9.68966 6.95996 9.68966 6.39996 9.00966L4.95996 7.56466C4.23996 9.94466 6.55996 12.6647 9.19996 11.5597L13.92 16.5747C14.4 17.0847 15.12 17.0847 15.6 16.5747C16.08 16.1497 16.08 15.2997 15.68 14.7897Z" fill="#005A7F"/>
</svg>
